<?xml version="1.0"?>
<svg xmlns="http://www.w3.org/2000/svg" xmlns:xlink="http://www.w3.org/1999/xlink" version="1.1" id="Capa_1" x="0px" y="0px" viewBox="0 0 512.042 512.042" style="enable-background:new 0 0 512.042 512.042;" xml:space="preserve" width="512px" height="512px" class=""><g><g transform="translate(0 -1)">
	<g transform="translate(1 2)">
		<path style="fill:#E7810F" d="M499.389,430.229l-26.027,43.349c-4.39,7.359-10.476,13.561-17.749,18.091    c-4.15,2.614-8.665,4.598-13.397,5.888c-43.179,11.861-138.496,14.336-291.243-138.496S0.616,110.997,12.477,67.818    c1.29-4.732,3.274-9.247,5.888-13.397c4.53-7.274,10.732-13.359,18.091-17.749l43.349-26.027    c9.899-5.927,22.707-3.035,29.099,6.571l37.632,56.32l31.488,47.275c6.226,9.447,4.187,22.088-4.693,29.099l-10.411,8.107    l-28.416,22.016c-8.363,6.532-10.781,18.151-5.717,27.477c11.435,20.48,22.187,44.629,75.605,98.133s77.653,64.171,98.133,75.605    c9.326,5.063,20.945,2.646,27.477-5.717l22.016-28.416l8.107-10.411c7.011-8.881,19.651-10.919,29.099-4.693l48.725,32.512    l54.869,36.608C502.423,407.522,505.316,420.33,499.389,430.229z" data-original="#A4C2F7" class="" data-old_color="#A4C2F7"/>
		<path style="fill:#E7810F" d="M482.322,447.295l-26.027,43.349c-0.256,0.341-0.427,0.683-0.683,1.024    c-4.15,2.614-8.665,4.598-13.397,5.888c-43.179,11.861-138.496,14.336-291.243-138.496S0.616,110.997,12.477,67.818    c1.29-4.732,3.274-9.247,5.888-13.397c0.341-0.256,0.683-0.427,1.024-0.683l43.349-26.027c9.899-5.927,22.707-3.035,29.099,6.571    l37.632,56.32l31.488,47.275c6.15,9.464,4.12,22.049-4.693,29.099l-28.587,22.187l-10.24,7.936    c-8.382,6.52-10.803,18.155-5.717,27.477c11.435,20.48,22.187,44.629,75.605,98.133s77.653,64.171,98.133,75.605    c9.323,5.086,20.957,2.665,27.477-5.717l7.936-10.24l22.187-28.587c7.05-8.814,19.635-10.843,29.099-4.693l48.725,32.512    l54.869,36.608C485.357,424.588,488.249,437.397,482.322,447.295z" data-original="#E3E7F2" class="active-path" data-old_color="#E3E7F2"/>
		<path style="fill:#FFFFFF;" d="M417.179,501.943c-52.437-4.087-131.985-34.202-240.64-142.882    C23.741,206.314,26.216,110.997,38.077,67.818c1.29-4.732,3.274-9.247,5.888-13.397c4.53-7.274,10.732-13.359,18.091-17.749    l41.532-24.934c-6.996-5.086-16.349-5.516-23.782-1.092L36.456,36.671c-7.359,4.39-13.561,10.476-18.091,17.749    c-2.614,4.15-4.598,8.665-5.888,13.397C0.616,110.997-1.859,206.314,150.973,359.061    C279.058,487.223,366.781,506.158,417.179,501.943z" data-original="#FFFFFF" class=""/>
	</g>
	<g>
		<path style="fill:#FFFFFF;" d="M145.914,367.119c-26.431-26.455-51.094-54.619-73.83-84.309    c-23.465-30.421-42.592-63.953-56.832-99.635c-7.067-18.195-11.84-37.2-14.208-56.576c-2.258-19.781-0.846-39.808,4.164-59.076    l16.452,4.514c-4.437,17.207-5.672,35.083-3.644,52.736c2.221,17.947,6.661,35.55,13.218,52.403    c13.679,34.181,32.033,66.299,54.537,95.437c22.242,29.037,46.366,56.582,72.218,82.458L145.914,367.119z" data-original="#FFFFFF" class=""/>
		<g>
			<path style="fill:#E7810F" d="M1.052,126.59c2.368,19.376,7.141,38.381,14.208,56.576c14.24,35.682,33.367,69.215,56.832,99.635     c1.644,2.372,3.385,4.671,5.222,6.895c2.948,3.723,8.343,4.381,12.1,1.476c3.667-2.882,4.308-8.189,1.434-11.861     c-1.792-2.167-3.499-4.403-5.12-6.707c-22.49-29.146-40.83-61.27-54.494-95.454c-6.555-16.845-10.995-34.439-13.218-52.378     c-2.025-17.639-0.79-35.501,3.644-52.693c3.109-10.986,10.351-20.341,20.207-26.103l43.341-26.001     c5.982-3.605,13.742-1.859,17.604,3.959l69.12,103.637c3.774,5.707,2.534,13.356-2.85,17.579l-38.801,30.182     c-11.808,9.029-15.18,25.366-7.91,38.332l3.081,5.598c10.906,20.002,24.465,44.885,73.967,94.379s74.377,63.053,94.37,73.958     l5.606,3.089c12.966,7.269,29.303,3.898,38.332-7.91l30.182-38.801c4.224-5.381,11.87-6.62,17.579-2.85l103.637,69.12     c5.819,3.863,7.564,11.622,3.959,17.604l-26.001,43.341c-5.76,9.845-15.109,17.075-26.086,20.173     c-52.497,14.413-144.213,2.475-283.008-136.32l-23.424-24.397c-3.239-3.36-8.554-3.564-12.041-0.461     c-1.691,1.525-2.693,3.669-2.78,5.944c-0.087,2.275,0.75,4.489,2.319,6.139l23.851,24.849     c115.004,114.995,200.619,145.92,259.465,145.92c13.543,0.058,27.033-1.704,40.107-5.239     c15.212-4.264,28.18-14.256,36.181-27.878l26.061-43.315c8.301-13.791,4.282-31.672-9.122-40.585l-103.646-69.12     c-13.153-8.701-30.784-5.838-40.508,6.579l-30.191,38.818c-3.881,5.116-10.933,6.6-16.546,3.482l-5.743-3.166     c-19.038-10.377-42.726-23.296-90.453-71.04c-47.727-47.744-60.672-71.45-71.049-90.453l-3.149-5.743     c-3.161-5.612-1.705-12.695,3.413-16.606l38.793-30.182c12.412-9.725,15.279-27.351,6.588-40.508l-69.12-103.646     C108.086,1.039,90.217-2.983,76.427,5.306L33.086,31.341C19.468,39.349,9.475,52.314,5.2,67.523     C0.198,86.79-1.208,106.814,1.052,126.59z" data-original="#428DFF" class="" data-old_color="#428DFF"/>
			<path style="fill:#E7810F" d="M106.251,302.531c-1.103-0.076-2.21,0.063-3.26,0.41c-1.065,0.317-2.057,0.842-2.918,1.545     c-1.725,1.487-2.83,3.566-3.098,5.828c-0.1,2.262,0.666,4.478,2.142,6.195c1.534,1.696,3.646,2.758,5.922,2.978l1.647-0.068     c0.586-0.061,1.161-0.205,1.707-0.427c0.526-0.132,1.029-0.342,1.493-0.623c0.489-0.296,0.957-0.627,1.399-0.99     c1.679-1.504,2.73-3.585,2.944-5.828c0.213-4.655-3.3-8.643-7.945-9.02H106.251z" data-original="#428DFF" class="" data-old_color="#428DFF"/>
			<path style="fill:#E7810F" d="M290.128,86.373c80.081,0.089,144.977,64.986,145.067,145.067c0,4.713,3.82,8.533,8.533,8.533     s8.533-3.82,8.533-8.533c-0.099-89.503-72.631-162.035-162.133-162.133c-4.713,0-8.533,3.821-8.533,8.533     S285.415,86.373,290.128,86.373z" data-original="#428DFF" class="" data-old_color="#428DFF"/>
			<path style="fill:#E7810F" d="M290.128,137.573c51.816,0.061,93.806,42.051,93.867,93.867c0,4.713,3.821,8.533,8.533,8.533     c4.713,0,8.533-3.82,8.533-8.533c-0.071-61.238-49.696-110.863-110.933-110.933c-4.713,0-8.533,3.821-8.533,8.533     C281.594,133.752,285.415,137.573,290.128,137.573z" data-original="#428DFF" class="" data-old_color="#428DFF"/>
			<path style="fill:#E7810F" d="M290.128,188.773c23.552,0.028,42.638,19.114,42.667,42.667c0,4.713,3.82,8.533,8.533,8.533     s8.533-3.82,8.533-8.533c-0.038-32.974-26.759-59.696-59.733-59.733c-4.713,0-8.533,3.821-8.533,8.533     C281.594,184.952,285.415,188.773,290.128,188.773z" data-original="#428DFF" class="" data-old_color="#428DFF"/>
		</g>
	</g>
</g></g> </svg>
